<?xml version="1.0" encoding="UTF-8" standalone="no"?>
<svg width="89px" height="68px" viewBox="0 0 89 68" version="1.1" xmlns="http://www.w3.org/2000/svg" xmlns:xlink="http://www.w3.org/1999/xlink" xmlns:sketch="http://www.bohemiancoding.com/sketch/ns">
    <title>camera</title>
    <description>Created with Sketch (http://www.bohemiancoding.com/sketch)</description>
    <defs>
        <linearGradient x1="0%" y1="0%" x2="101.999998%" y2="100.999999%" id="linearGradient-1">
            <stop stop-color="#282BD8" offset="0%"></stop>
            <stop stop-color="#F8125F" offset="100%"></stop>
        </linearGradient>
    </defs>
    <g id="Landing-Page" stroke="none" stroke-width="1" fill="none" fill-rule="evenodd" sketch:type="MSPage">
        <g id="Group" sketch:type="MSLayerGroup" transform="translate(-50.000000, -67.000000)" fill="url(#linearGradient-1)">
            <path d="M133.702381,79.75 L117.809524,79.75 C113.726119,79.75 113.575667,75.931375 113.571429,75.5 L113.571429,73.375 C113.571429,70.70175 110.625952,67 105.095238,67 L83.9704524,67 C77.7510476,67 75.4942619,70.81225 75.4942619,73.375 L75.4942619,75.48725 C75.4921429,75.6615 75.3925476,79.75 71.1904762,79.75 L55.297619,79.75 C52.3754524,79.75 50,82.13425 50,85.0625 L50,123.3125 C50,126.24075 52.3754524,128.625 55.297619,128.625 L68.0119048,128.625 C68.5967619,128.625 69.0714286,128.149 69.0714286,127.5625 C69.0714286,126.976 68.5967619,126.5 68.0119048,126.5 L55.297619,126.5 C53.5451667,126.5 52.1190476,125.069875 52.1190476,123.3125 L52.1190476,96.75 L69.0714286,96.75 C67.7067619,100.0225 66.952381,103.611625 66.952381,107.375 C66.952381,122.607 79.3106667,135 94.5,135 C109.689333,135 122.047619,122.607 122.047619,107.375 C122.047619,103.611625 121.286881,100.0225 119.922214,96.75 L136.880952,96.75 L136.880952,123.3125 C136.880952,125.069875 135.454833,126.5 133.702381,126.5 L118.869048,126.5 C118.28419,126.5 117.809524,126.976 117.809524,127.5625 C117.809524,128.149 118.28419,128.625 118.869048,128.625 L133.702381,128.625 C136.624548,128.625 139,126.24075 139,123.3125 L139,85.0625 C139,82.13425 136.624548,79.75 133.702381,79.75 L133.702381,79.75 Z M94.5,133 C80.438875,133 69,121.561125 69,107.5 C69,93.438875 80.438875,82 94.5,82 C108.561125,82 120,93.438875 120,107.5 C120,121.561125 108.561125,133 94.5,133 L94.5,133 Z M119.46875,94.898564 C119.3115,94.898564 119.164875,94.9374118 119.031,95 C114.4325,85.9808251 105.17175,79.7910683 94.5,79.7910683 C83.82825,79.7910683 74.5675,85.9808251 69.969,95 C69.835125,94.9374118 69.6885,94.898564 69.53125,94.898564 L52,94.898564 L52,85.1866025 C52,83.4017598 53.430125,81.949282 55.1875,81.949282 L71.125,81.949282 C76.157,81.949282 77.540375,77.7234996 77.565875,75.474641 L77.565875,73.3164273 C77.565875,71.5812235 79.26375,69 83.940875,69 L105.125,69 C109.57475,69 111.5,71.8574749 111.5,73.3164273 L111.5,75.474641 C111.5,77.7148668 112.832375,81.949282 117.875,81.949282 L133.8125,81.949282 C135.569875,81.949282 137,83.4017598 137,85.1866025 L137,94.898564 L119.46875,94.898564 L119.46875,94.898564 Z M69.9285714,77 C70.52,77 71,76.552 71,76 L71,74 C71,72.346 69.5578571,71 67.7857143,71 L59.2142857,71 C57.4421429,71 56,72.346 56,74 L56,76 C56,76.552 56.48,77 57.0714286,77 C57.6628571,77 58.1428571,76.552 58.1428571,76 L58.1428571,74 C58.1428571,73.448 58.625,73 59.2142857,73 L67.7857143,73 C68.375,73 68.8571429,73.448 68.8571429,74 L68.8571429,76 C68.8571429,76.552 69.3371429,77 69.9285714,77 L69.9285714,77 Z M94.5,88 C84.2982778,88 76,96.5246667 76,107 C76,117.475333 84.2982778,126 94.5,126 C104.701722,126 113,117.475333 113,107 C113,96.5246667 104.701722,88 94.5,88 L94.5,88 Z M94.5,124 C85.4023125,124 78,116.373375 78,107 C78,97.626625 85.4023125,90 94.5,90 C103.597688,90 111,97.626625 111,107 C111,116.373375 103.597688,124 94.5,124 L94.5,124 Z" id="Shape-copy" sketch:type="MSShapeGroup"></path>
        </g>
    </g>
</svg>