<?xml version="1.0" encoding="UTF-8" standalone="no"?>
<svg width="92px" height="53px" viewBox="0 0 92 53" version="1.1" xmlns="http://www.w3.org/2000/svg" xmlns:xlink="http://www.w3.org/1999/xlink" xmlns:sketch="http://www.bohemiancoding.com/sketch/ns">
    <title>delivery</title>
    <description>Created with Sketch (http://www.bohemiancoding.com/sketch)</description>
    <defs>
        <linearGradient x1="0%" y1="0%" x2="101.999998%" y2="100.999999%" id="linearGradient-1">
            <stop stop-color="#282BD8" offset="0%"></stop>
            <stop stop-color="#F8125F" offset="100%"></stop>
        </linearGradient>
    </defs>
    <g id="Landing-Page" stroke="none" stroke-width="1" fill="none" fill-rule="evenodd" sketch:type="MSPage">
        <g id="Rectangle-11-copy-3-+-Tell-us-what-you-lik-+-Complete-your-profil-copy-3-+-Shape" sketch:type="MSLayerGroup" transform="translate(-48.000000, -78.000000)" fill="url(#linearGradient-1)">
            <path d="M108.77381,78 C109.977833,78 110.952381,78.9745476 110.952381,80.1785714 L110.952381,82.3571429 L127.56181,82.3571429 C128.610429,82.3571429 129.509452,83.1036667 129.702619,84.1334048 L132.47231,98.8925 L138.570857,101.129167 C139.429214,101.444333 140,102.260571 140,103.174119 L140,120.845238 C140,122.04781 139.025452,123.02381 137.821429,123.02381 L130.663818,123.023811 C129.676199,127.180526 126.146103,130.285713 121.69165,130.285713 C117.237198,130.285713 114.25643,127.180526 113.270264,123.023811 L76.925293,123.023811 C75.9376739,127.180526 72.2686614,130.285713 67.814209,130.285713 C63.3597566,130.285713 60.2891452,127.180526 59.3029785,123.023811 L50.6785714,123.02381 C49.476,123.02381 48.5,122.04781 48.5,120.845238 L48.5,80.1785714 C48.5,78.9745476 49.476,78 50.6785714,78 L108.77381,78 Z M68.1547619,127.928571 C71.785,127.928571 74.7380952,124.975476 74.7380952,121.345238 C74.7380952,117.715 71.785,114.761905 68.1547619,114.761905 C64.5245238,114.761905 61.5714286,117.715 61.5714286,121.345238 C61.5714286,124.975476 64.5245238,127.928571 68.1547619,127.928571 L68.1547619,127.928571 Z M121.892857,127.928571 C125.523095,127.928571 128.47619,124.975476 128.47619,121.345238 C128.47619,117.715 125.523095,114.761905 121.892857,114.761905 C118.262619,114.761905 115.309524,117.715 115.309524,121.345238 C115.309524,124.975476 118.262619,127.928571 121.892857,127.928571 L121.892857,127.928571 Z M59.4873058,120.666668 C59.4873058,120.666668 59.4978038,112.620605 68.2912609,112.620605 C77.0847179,112.620606 77.2021495,120.666668 77.2021495,120.666668 L113.114078,120.666667 C113.114078,120.666667 114.161621,112.620605 121.983154,112.620605 C129.804688,112.620605 130.499024,120.666668 130.499024,120.666668 L137.642857,120.666667 L137.642857,103.649902 L130.499024,101.039062 L127.514683,84.9542857 L111.35589,84.9542857 L111.35589,110.982664 C111.35589,112.251475 111.357798,113.281235 110.124687,113.281235 C108.891575,113.281235 108.893484,112.251475 108.893484,110.982664 L108.893484,80.3571429 L50.8571429,80.3571429 L50.8571429,120.666667 L59.4873058,120.666668 Z" id="Shape" sketch:type="MSShapeGroup"></path>
        </g>
    </g>
</svg>