<?xml version="1.0" encoding="UTF-8" standalone="no"?>
<svg width="82px" height="109px" viewBox="0 0 82 109" version="1.1" xmlns="http://www.w3.org/2000/svg" xmlns:xlink="http://www.w3.org/1999/xlink" xmlns:sketch="http://www.bohemiancoding.com/sketch/ns">
    <title>frame</title>
    <description>Created with Sketch (http://www.bohemiancoding.com/sketch)</description>
    <defs>
        <linearGradient x1="0%" y1="0%" x2="101.999998%" y2="100.999999%" id="linearGradient-1">
            <stop stop-color="#282BD8" offset="0%"></stop>
            <stop stop-color="#F8125F" offset="100%"></stop>
        </linearGradient>
    </defs>
    <g id="Landing-Page" stroke="none" stroke-width="1" fill="none" fill-rule="evenodd" sketch:type="MSPage">
        <g id="Group" sketch:type="MSLayerGroup" transform="translate(-52.000000, -47.000000)" fill="url(#linearGradient-1)">
            <path d="M98.2040246,156 C96.5695933,156 95.2401111,154.22023 95.2401111,152.034314 C95.2401111,149.869008 96.5454866,148.102574 98.1594273,148.06984 C97.2445797,147.439403 95.3281004,146.912019 92.9993973,146.912019 C90.6706942,146.912019 88.754215,147.440616 87.8393673,148.06984 C89.4533081,148.101361 90.7586835,149.867795 90.7586835,152.034314 C90.7586835,154.221442 89.4292014,156 87.79477,156 C86.5038585,156 85.5721362,154.826419 85.1333951,153.728005 C84.7042966,152.675661 84.1558701,152.178587 83.1855772,151.956721 C83.1132572,151.939748 82.3659508,151.7979 82.3659508,151.7979 C76.0861666,150.601284 76.0512119,150.471559 75.9439373,150.090873 C75.9113933,149.974484 75.9186253,149.765956 75.9993826,149.677452 C76.2066999,149.456799 76.2561185,149.10036 76.1078626,148.751196 C75.9077773,148.280793 75.4376975,148.000734 74.8531111,148.000734 C74.1021887,148.000734 73.1572077,148.420217 72.1182108,149.213111 C71.0997045,149.991458 69.5363878,150.38548 67.4704473,150.38548 C65.3104908,150.38548 63.3614676,149.949025 63.3445929,149.945387 C62.4164866,149.748982 61.0604871,149.662903 60.9098205,149.662903 C60.2782261,149.665328 59.9985889,150.08966 59.561053,150.837697 C59.1343652,151.567548 58.6004028,152.473194 57.4215872,152.718094 C57.2745366,152.748404 57.1262807,152.764165 56.9792301,152.764165 C56.2271024,152.764165 55.5219826,152.353169 55.0422601,151.635441 C54.4781644,150.895891 54.2166071,149.809601 54.3359351,148.673604 C54.4974497,147.159344 55.1254281,146.434343 55.6304626,145.852401 C56.146345,145.258336 56.5175876,144.829155 56.5199982,143.700432 C56.5199982,143.484628 56.4573209,141.538763 56.3114757,140.179688 C56.272905,139.847496 55.3677,131.911274 56.8020461,128.219585 C58.007379,125.114686 57.8205524,123.108202 57.2926166,122.334705 C57.163646,122.141937 57.044318,122.091017 56.9948994,122.091017 C56.9442754,122.091017 56.9008834,122.160123 56.8779821,122.200131 C56.8237421,122.299546 56.6863342,122.43897 56.5730329,122.451093 C56.5621849,122.452306 56.4573209,122.462005 56.4464729,122.462005 C55.8679132,122.462005 55.8570652,122.462005 54.9904308,113.542544 C54.9313695,112.92302 54.8903882,112.49505 54.8771295,112.384724 C54.7095883,110.938358 54.3347298,110.100605 53.5838074,109.496841 C52.818421,108.896714 52,107.664939 52,106.014893 C52,103.827765 53.3294821,102.047995 54.9639135,102.047995 C55.5352413,102.047995 56.0848731,102.262585 56.5549529,102.661458 C56.6549955,102.301381 56.7080302,101.912208 56.7080302,101.514549 C56.7080302,101.109614 56.6525849,100.713167 56.5477209,100.345817 C56.0788464,100.741052 55.5316253,100.953218 54.9639135,100.953218 C53.3294821,100.953218 52,99.1746602 52,96.9875314 C52,95.3386982 52.8208317,94.1057104 53.5874234,93.5007341 C54.3347298,92.9006073 54.7095883,92.0652793 54.8771295,90.6189131 C54.8903882,90.5073744 54.9313695,90.0781928 54.9904308,89.4586679 C55.8570652,80.5379952 55.8679132,80.5379952 56.4464729,80.5379952 C56.5730329,80.5379952 56.7803501,80.6095255 56.8394114,80.723489 C56.9274007,80.8932218 56.9719981,80.9235312 56.9924887,80.9235312 C57.0431127,80.9235312 57.1660567,80.8544257 57.2950273,80.6652949 C57.8205524,79.8905857 58.007379,77.8841012 56.8020461,74.7804151 C55.3701107,71.0996374 56.272905,63.1512913 56.312681,62.8154628 C56.4573209,61.4624497 56.5199982,59.5153716 56.5199982,59.2983561 C56.5175876,58.167208 56.1258544,57.717416 55.6304626,57.1463862 C55.1218121,56.5595956 54.4962444,55.8333815 54.3359351,54.3239717 C54.2154018,53.1903989 54.4793697,52.101684 55.0615455,51.3390986 C55.5243933,50.643194 56.229513,50.2346228 56.9816407,50.2346228 C57.127486,50.2346228 57.2757419,50.2503837 57.4227926,50.2806932 C58.6028134,50.5255934 59.1343652,51.4324517 59.561053,52.1598781 C60.0009995,52.9103397 60.2794314,53.3346718 60.9122312,53.3358841 C61.0616925,53.3358841 62.4140759,53.2498054 63.3590569,53.0509755 C63.5699902,53.0049051 65.4430774,52.6133072 67.4716526,52.6133072 C69.5387985,52.6133072 71.1021152,53.0073299 72.1182108,53.7856762 C73.1560024,54.578571 74.1021887,54.9980535 74.8519057,54.9980535 C75.4364922,54.9980535 75.9077773,54.7179943 76.1078626,54.2475919 C76.2609399,53.8850911 76.1994679,53.5371388 76.0656759,53.3928659 C75.9909453,53.3152737 75.902956,53.1503904 75.9198307,53.0437012 C75.9222413,53.030365 75.9415267,52.9212511 75.9451427,52.9091273 C76.0512119,52.5260161 76.0873719,52.3975041 82.3755935,51.1996752 C82.8492893,51.1099593 83.1108465,51.0602518 83.1843718,51.0432785 C84.1582808,50.8226259 84.7042966,50.3255511 85.1370111,49.2683581 C85.5733416,48.1735813 86.5038585,47 87.7959754,47 C89.4304067,47 90.7598889,48.7785576 90.7598889,50.9656864 C90.7598889,53.1322047 89.4545134,54.8974262 87.8405727,54.9301604 C88.754215,55.5605966 90.6706942,56.0879808 93.0006027,56.0879808 C95.3305111,56.0879808 97.245785,55.5605966 98.1606327,54.9301604 C96.5466919,54.8986386 95.2413165,53.1322047 95.2413165,50.9656864 C95.2413165,48.7785576 96.5707986,47 98.20523,47 C99.4985521,47 100.429069,48.1735813 100.866605,49.2732076 C101.296909,50.3255511 101.84413,50.8226259 102.814423,51.0432785 C102.89518,51.0626766 103.195308,51.1184459 103.626817,51.2008876 C109.915039,52.3987164 109.951199,52.5272284 110.057268,52.9103397 C110.089812,53.0255155 110.08258,53.2328321 110.001823,53.3201232 C109.794505,53.5419883 109.743881,53.8984272 109.893343,54.2475919 C110.093428,54.7179943 110.562302,54.9980535 111.145684,54.9980535 C111.897811,54.9980535 112.843998,54.578571 113.881789,53.7856762 C114.901501,53.0073299 116.464818,52.6133072 118.528347,52.6133072 C120.632859,52.6133072 122.565007,53.0352146 122.645764,53.0521878 C123.587129,53.2510177 124.940718,53.3358841 125.091385,53.3358841 C125.719363,53.3346718 125.999,52.9103397 126.437742,52.1610905 C126.864429,51.4324517 127.398392,50.5255934 128.578413,50.2806932 C128.724258,50.2503837 128.872514,50.2346228 129.019565,50.2346228 C129.770487,50.2346228 130.478017,50.6456188 130.95774,51.3633462 C131.521836,52.1041087 131.783393,53.1891865 131.66286,54.3239717 C131.50255,55.838231 130.874572,56.5632327 130.369537,57.1463862 C129.87294,57.7186283 129.481207,58.1696327 129.478796,59.2983561 C129.478796,59.5226459 129.539063,61.434565 129.688524,62.8203123 C129.727095,63.1525037 130.629889,71.0911508 129.196749,74.7816275 C127.991416,77.8853135 128.178242,79.8917981 128.706178,80.6677196 C128.836354,80.8592752 128.955682,80.9114075 129.006306,80.9114075 C129.054519,80.9114075 129.097911,80.8435143 129.119607,80.8047183 C129.173847,80.7040909 129.311255,80.5646675 129.423351,80.5525438 C129.435404,80.5513314 129.541474,80.54042 129.552322,80.54042 C130.130882,80.54042 130.14173,80.54042 131.005953,89.4441194 C131.06863,90.0891042 131.108406,90.5073744 131.12287,90.6177007 C131.289206,92.0664917 131.664065,92.9018197 132.416193,93.506796 C133.180374,94.1057104 134,95.3362734 134,96.9899562 C134,99.177085 132.670518,100.955643 131.036086,100.955643 C130.463553,100.955643 129.913922,100.741052 129.445047,100.343392 C129.343799,100.703468 129.290765,101.091429 129.290765,101.489089 C129.29197,101.894023 129.347415,102.29047 129.452279,102.65782 C129.922359,102.262585 130.46958,102.050419 131.036086,102.050419 C132.670518,102.050419 134,103.830189 134,106.016106 C134,107.666151 133.179168,108.900351 132.411371,109.502903 C131.66286,110.10303 131.288001,110.93957 131.12287,112.384724 C131.108406,112.496263 131.069836,112.907259 131.01198,113.498899 C130.14173,122.46443 130.132087,122.46443 129.552322,122.46443 C129.425762,122.46443 129.21965,122.394112 129.160589,122.281361 C129.071394,122.111628 129.026797,122.081318 129.006306,122.081318 C128.955682,122.081318 128.832738,122.150424 128.706178,122.33713 C128.179448,123.114264 127.992621,125.120748 129.196749,128.223222 C130.629889,131.908849 129.727095,139.852346 129.687319,140.188174 C129.539063,141.570285 129.478796,143.479779 129.478796,143.704069 C129.481207,144.835217 129.87294,145.286221 130.369537,145.856039 C130.874572,146.43798 131.50255,147.162981 131.66286,148.677241 C131.783393,149.813238 131.52063,150.901953 130.938455,151.663326 C130.474401,152.359231 129.770487,152.767802 129.018359,152.767802 C128.872514,152.767802 128.724258,152.752041 128.577207,152.721732 C127.395981,152.476831 126.863224,151.571185 126.436536,150.842547 C125.999,150.093297 125.719363,149.668965 125.088974,149.666541 C124.939513,149.666541 123.582308,149.752619 122.639738,149.951449 L122.639738,149.951449 C122.640943,149.951449 120.677456,150.389118 118.528347,150.389118 C116.462407,150.389118 114.89909,149.995095 113.880584,149.216749 C112.843998,148.423854 111.897811,148.004371 111.146889,148.004371 C110.561097,148.004371 110.092223,148.28443 109.892137,148.754833 C109.737855,149.118546 109.799327,149.466498 109.934324,149.608346 C110.007849,149.684726 110.094633,149.848397 110.078964,149.952662 C110.076553,149.96721 110.059679,150.078749 110.054857,150.093297 C109.947583,150.473984 109.912628,150.603708 103.631639,151.800325 C103.145889,151.892465 102.886743,151.940961 102.814423,151.959146 C101.840514,152.181011 101.293293,152.678086 100.864194,153.734067 C100.426658,154.827631 99.4973468,156 98.2040246,156 L98.2040246,156 Z M98.0687849,148.109339 C97.0121766,148.109339 96.1175815,149.456285 96.1175815,151.04932 C96.1175815,152.643543 97.0121766,153.991678 98.0687849,153.991678 C98.8131068,153.991678 99.4705519,153.171384 99.7934045,152.357034 C100.325231,151.044564 101.115339,150.333643 102.352745,150.050701 C102.431403,150.03168 102.738994,149.973427 103.182769,149.887831 C105.947561,149.358801 107.732055,148.984319 108.504553,148.772707 C108.380108,148.370882 108.40711,147.898915 108.592604,147.460236 C108.94011,146.638754 109.718479,146.147766 110.675296,146.147766 C111.626244,146.147766 112.712202,146.612599 113.903822,147.529189 C114.727976,148.164025 116.060477,148.486198 117.864929,148.486198 C119.846656,148.486198 121.651109,148.083184 121.667545,148.078429 C122.698325,147.858495 124.081308,147.776466 124.253887,147.776466 C125.432592,147.780032 125.955026,148.675222 126.375322,149.393277 C126.746309,150.03168 127.097337,150.635606 127.842833,150.791343 C127.921492,150.807987 128.003673,150.816309 128.082331,150.816309 C128.5038,150.816309 128.899442,150.572598 129.194118,150.130353 C129.629675,149.55258 129.819865,148.72872 129.727118,147.856117 C129.602673,146.668474 129.160072,146.15371 128.691642,145.610414 C128.152772,144.9839 127.596291,144.337175 127.593943,142.87729 C127.593943,142.650223 127.653818,140.714805 127.801743,139.322683 C128.052981,137.132855 128.465058,130.841557 127.383796,128.040669 C125.741357,123.78584 126.677042,121.874199 127.003417,121.390344 C127.293397,120.961176 127.671428,120.724599 128.069417,120.724599 C128.145728,120.724599 128.220864,120.73292 128.291305,120.749564 C128.510845,119.163663 128.888876,115.257161 129.061455,113.479858 C129.061455,113.479858 129.187074,112.159066 129.199988,112.055637 C129.390177,110.385329 129.870347,109.351045 130.804859,108.593759 C131.382471,108.137248 131.997652,107.196882 131.997652,105.920077 C131.997652,104.29851 131.121841,102.977718 130.046449,102.977718 C129.559235,102.977718 129.088457,103.259471 128.720992,103.773046 L128.595373,103.950182 C128.531977,104.038156 128.431012,104.090464 128.325351,104.090464 L128.301871,104.090464 C128.186818,104.082143 128.083505,104.014379 128.030675,103.910951 L127.928536,103.714794 C127.590421,103.05737 127.411972,102.284629 127.411972,101.47979 C127.411972,100.683273 127.586899,99.9176649 127.919144,99.2661851 C127.968452,99.1698897 128.091723,99.0414959 128.197384,99.0248522 C128.197384,99.0248522 128.379355,98.9986979 128.395792,98.9986979 C128.499104,98.9986979 128.598895,99.0486289 128.662292,99.1330359 C129.083761,99.7250742 129.556887,100.009205 130.048797,100.009205 C131.124189,100.009205 132,98.6907905 132,97.069224 C132,95.7912298 131.387167,94.8508639 130.813077,94.397919 C129.873869,93.6382555 129.392525,92.602783 129.202336,90.9324744 C129.189422,90.8242907 129.063803,89.5165757 129.063803,89.5165757 C128.892398,87.7368945 128.512019,83.8268268 128.294827,82.2373588 C128.222038,82.2551912 128.148076,82.2635131 128.071765,82.2635131 C127.673776,82.2635131 127.295745,82.0269355 127.006939,81.5989561 C126.680564,81.1139127 125.743705,79.2022712 127.386144,74.9474423 C128.674032,71.6151468 127.814657,63.7474582 127.805265,63.6689953 C127.656166,62.2733068 127.596291,60.3378886 127.596291,60.1096329 C127.598639,58.6485587 128.15512,58.003023 128.69399,57.3788863 C129.16242,56.8332126 129.603847,56.3184484 129.729466,55.1319943 C129.821039,54.2570141 129.632023,53.4367202 129.212902,52.8815357 C128.904138,52.4167025 128.506148,52.1706143 128.083505,52.1706143 C128.006021,52.1706143 127.925014,52.1789362 127.845181,52.1955798 C127.102033,52.3513168 126.749831,52.9540545 126.37767,53.593646 C125.958548,54.3128892 125.43494,55.2080795 124.259757,55.211646 C124.086004,55.211646 122.703021,55.1284278 121.679285,54.9108716 C121.656979,54.9061163 119.833742,54.5007246 117.866103,54.5007246 C116.063999,54.5007246 114.731498,54.822898 113.90617,55.4577342 C112.713376,56.3743235 111.628592,56.8403456 110.677644,56.8403456 C109.722001,56.8403456 108.941284,56.3505469 108.594952,55.5290641 C108.408284,55.0868187 108.380108,54.6148525 108.504553,54.215405 C107.729707,54.0037929 105.944039,53.6293109 103.178073,53.1002808 C103.178073,53.1002808 102.416141,52.9528657 102.355093,52.9397885 C101.118861,52.6556577 100.328753,51.9459251 99.7981005,50.6358325 C99.474074,49.8191051 98.8142808,49 98.0711329,49 C97.0145246,49 96.1199296,50.3457576 96.1199296,51.939981 C96.1199296,53.5342044 97.0145246,54.879962 98.0711329,54.879962 C98.3258929,54.879962 98.5747829,54.8050656 98.8107587,54.6564616 L99.0173844,54.5256901 C99.0713888,54.491214 99.1336113,54.4745703 99.1934858,54.4745703 C99.2486642,54.4745703 99.3050166,54.4888363 99.355499,54.5173683 C99.4611599,54.5768099 99.5269044,54.6897489 99.5269044,54.8121985 L99.5269044,55.0594756 C99.5269044,56.6857974 96.7221963,57.9126718 93.001761,57.9126718 C89.2824997,57.9126718 86.4777917,56.6857974 86.4777917,55.0594756 L86.4777917,54.8121985 C86.4777917,54.6897489 86.5435362,54.5768099 86.649197,54.5173683 C86.6985054,54.4900251 86.7548578,54.4745703 86.8100363,54.4745703 C86.8722588,54.4745703 86.9321332,54.4924028 86.9861377,54.5256901 L87.1927633,54.6564616 C87.4275651,54.8050656 87.6764551,54.879962 87.9312151,54.879962 C88.9878234,54.879962 89.8824185,53.5342044 89.8824185,51.939981 C89.8824185,50.3457576 88.9878234,49 87.9312151,49 C87.1880672,49 86.5306221,49.8202939 86.2077695,50.6334549 C85.6735953,51.947114 84.8846611,52.6580354 83.6472554,52.9409773 C83.5897289,52.9540545 82.8277969,53.1014696 82.8277969,53.1014696 C79.5746173,53.7220398 78.1188459,54.0477797 77.496621,54.2177827 C77.6210659,54.6196078 77.5928897,55.091574 77.4073963,55.5302529 C77.0598895,56.3505469 76.2815214,56.8415344 75.3258779,56.8415344 C74.3737564,56.8415344 73.2877978,56.3767012 72.0961784,55.458923 C71.27085,54.8240869 69.9383495,54.5019135 68.1362453,54.5019135 C66.189738,54.5019135 64.4028959,54.8942279 64.3289333,54.9108716 C63.3016752,55.1296166 61.9186923,55.2128349 61.746113,55.2128349 C60.5697557,55.2092684 60.0484956,54.3176445 59.6282003,53.600779 C59.2536914,52.9564321 58.9026626,52.3525056 58.1583407,52.1979575 C58.0796821,52.1813138 57.9986755,52.172992 57.9200169,52.172992 C57.4961995,52.172992 57.1017324,52.4178914 56.8070561,52.8601368 C56.3714987,53.437909 56.1813092,54.2617694 56.2740559,55.134372 C56.3973269,56.3232037 56.8399284,56.8367791 57.308358,57.3800752 C57.8472283,58.0054007 58.4037087,58.6509363 58.4060567,60.1120106 C58.4060567,60.3509658 58.3485302,62.2542855 58.198257,63.6678064 C57.9470191,65.8576346 57.5349418,72.1477435 58.6162043,74.94982 C59.9217026,78.3308575 59.6681166,80.6027151 58.9965833,81.6001449 C58.7077771,82.0293132 58.3297461,82.2658907 57.9305829,82.2658907 C57.8542723,82.2658907 57.7791357,82.2575689 57.7086952,82.2409253 C57.4809374,83.8957791 57.0782522,88.0721451 56.916239,89.7519644 L56.8011861,90.9312855 C56.6086485,92.6063495 56.1284788,93.6406331 55.1939674,94.3967301 C54.6175289,94.8532415 54.002348,95.7936075 54.002348,97.0716016 C54.002348,98.6931682 54.3913574,100.009205 55.1869234,100.009205 C55.9824893,100.009205 56.9103689,98.7298295 57.2778338,98.217443 L57.4058008,98.0379294 C57.4691973,97.9499558 57.5689881,97.8988361 57.6746489,97.8988361 C57.682867,97.8988361 57.6910851,97.8988361 57.6993031,97.9000249 C57.81553,97.9083467 57.9176688,97.9761101 57.9693252,98.0807273 L58.07029,98.2768846 C58.4084047,98.9283644 58.5868541,100.701105 58.5868541,101.510699 C58.5868541,102.307217 58.4119267,104.074013 58.0796821,104.725493 C58.0362438,104.811089 57.9294089,104.931161 57.8366622,104.953749 L57.688737,104.990603 C57.6629088,104.996547 57.6347326,105.000113 57.6089044,105.000113 C57.5055916,105.000113 57.4069748,104.95256 57.3424043,104.866964 C56.9150649,104.266604 56.4419392,102.981284 55.9512034,102.981284 C54.8758109,102.981284 54,104.300888 54,105.923643 C54,107.200448 54.6128328,108.139625 55.1869233,108.593759 C56.1249567,109.353423 56.6063005,110.388895 56.797664,112.058015 L56.9115429,113.213559 C57.0759042,114.920722 57.4774154,119.097088 57.7051732,120.753131 C57.7779617,120.735298 57.8519243,120.728165 57.9282349,120.728165 C58.3273981,120.728165 58.705429,120.964743 58.9942353,121.3951 C59.3194359,121.878954 60.2562952,123.790596 58.6138563,128.045425 C57.3236202,131.384853 58.1853429,139.24422 58.194735,139.321494 C58.3461822,140.73977 58.4037087,142.645468 58.4037087,142.883234 C58.4013606,144.346686 57.8437063,144.991033 57.304836,145.615169 C56.8387543,146.158466 56.3961529,146.67323 56.2717079,147.860873 C56.1801352,148.733475 56.3679766,149.553769 56.7870979,150.11252 C57.0970364,150.576164 57.4938515,150.823441 57.9141468,150.823441 C57.9928054,150.823441 58.0749861,150.81512 58.1559927,150.798476 C58.9003146,150.642739 59.2513433,150.038813 59.6223303,149.401599 C60.0449736,148.679978 60.5674077,147.787165 61.7402429,147.783599 C61.9139963,147.783599 63.2993272,147.865628 64.3207152,148.084373 C64.3430214,148.089128 66.1639098,148.493331 68.1327232,148.493331 C69.9371755,148.493331 71.2696759,148.171158 72.0938304,147.536322 C73.2854498,146.619732 74.3714084,146.154899 75.3235299,146.154899 C76.2791734,146.154899 77.0587155,146.644698 77.4050482,147.467369 C77.5917157,147.908426 77.6198919,148.380392 77.496621,148.77984 C78.269119,148.991452 80.0524391,149.364745 82.8137088,149.894964 C83.2739204,149.982937 83.5685968,150.038813 83.6472554,150.057834 C84.8823131,150.340776 85.6712473,151.051697 86.2030735,152.36179 C86.5271,153.178517 87.1857192,154 87.9288671,154 C88.9854754,154 89.8800704,152.651865 89.8800704,151.057641 C89.8800704,149.464607 88.9854754,148.11766 87.9288671,148.11766 C87.6729331,148.11766 87.4240431,148.192557 87.1892413,148.341161 L86.9849637,148.471932 C86.9309592,148.506408 86.8687367,148.524241 86.8076883,148.524241 C86.7525098,148.524241 86.6973314,148.509975 86.646849,148.482632 C86.5400141,148.42319 86.4754436,148.310251 86.4754436,148.187801 L86.4754436,147.939336 C86.4754436,146.314203 89.2801517,145.088517 92.999413,145.088517 C96.7186743,145.088517 99.5233824,146.314203 99.5233824,147.939336 L99.5233824,148.187801 C99.5233824,148.31144 99.4576378,148.42319 99.351977,148.482632 C99.3014946,148.509975 99.2463162,148.524241 99.1911377,148.524241 C99.1289152,148.524241 99.0678668,148.506408 99.0138623,148.471932 L98.8072367,148.339972 C98.5736089,148.184235 98.3247189,148.109339 98.0687849,148.109339 L98.0687849,148.109339 Z M67.3372117,134 C67.1513282,134 67,133.84871 67,133.662874 L67,67.3383177 C67,67.1512899 67.1513282,67 67.3372117,67 L117.662788,67 C117.848672,67 118,67.1512899 118,67.3383177 L118,133.662874 C118,133.84871 117.848672,134 117.662788,134 L67.3372117,134 L67.3372117,134 Z M116,132 L116,69 L69,69 L69,132 L116,132 L116,132 Z" id="Shape" sketch:type="MSShapeGroup"></path>
        </g>
    </g>
</svg>