<?xml version="1.0" encoding="UTF-8" standalone="no"?>
<svg width="91px" height="91px" viewBox="0 0 91 91" version="1.1" xmlns="http://www.w3.org/2000/svg" xmlns:xlink="http://www.w3.org/1999/xlink" xmlns:sketch="http://www.bohemiancoding.com/sketch/ns">
    <title>tick</title>
    <description>Created with Sketch (http://www.bohemiancoding.com/sketch)</description>
    <defs>
        <linearGradient x1="0%" y1="0%" x2="101.999998%" y2="100.999999%" id="linearGradient-1">
            <stop stop-color="#282BD8" offset="0%"></stop>
            <stop stop-color="#F8125F" offset="100%"></stop>
        </linearGradient>
    </defs>
    <g id="Landing-Page" stroke="none" stroke-width="1" fill="none" fill-rule="evenodd" sketch:type="MSPage">
        <g id="Group" sketch:type="MSLayerGroup" transform="translate(-49.000000, -56.000000)" fill="url(#linearGradient-1)">
            <g id="Shape-+-Shape" transform="translate(49.000000, 56.000000)" sketch:type="MSShapeGroup">
                <path d="M45.7083333,3 C69.2522727,3 88.4166667,22.1605114 88.4166667,45.7083333 C88.4166667,69.2522727 69.2522727,88.4166667 45.7083333,88.4166667 C22.1605114,88.4166667 3,69.2522727 3,45.7083333 C3,22.1605114 22.1605114,3 45.7083333,3 L45.7083333,3 Z M45.5,0 C20.372625,0 0,20.372625 0,45.5 C0,70.627375 20.372625,91 45.5,91 C70.627375,91 91,70.627375 91,45.5 C91,20.372625 70.627375,0 45.5,0 L45.5,0 L45.5,0 Z" id="Shape"></path>
                <path d="M41.7277858,62.6017414 L26.2911646,47.1689383 C25.546633,46.4244068 24.7736816,45.3569334 25.6447754,44.4695337 C26.5158691,43.582134 27.2460372,43.7250026 27.9905688,44.4695342 L41.7777662,58.2490953 L63.3959084,25.6729757 C63.9762612,24.7948102 64.7020471,24.5516594 65.5802125,25.1396484 C66.4583779,25.7200013 66.1605654,26.9062254 65.5802126,27.7843908 L42.671549,62.3077469 C42.3546459,62.7850107 42.0905063,62.9606438 41.7277858,62.6017414 Z" id="Shape"></path>
            </g>
        </g>
    </g>
</svg>