<?xml version="1.0" encoding="UTF-8" standalone="no"?>
<svg width="86px" height="95px" viewBox="0 0 86 95" version="1.1" xmlns="http://www.w3.org/2000/svg" xmlns:xlink="http://www.w3.org/1999/xlink" xmlns:sketch="http://www.bohemiancoding.com/sketch/ns">
    <title>user</title>
    <description>Created with Sketch (http://www.bohemiancoding.com/sketch)</description>
    <defs>
        <linearGradient x1="0%" y1="0%" x2="101.999998%" y2="100.999999%" id="linearGradient-1">
            <stop stop-color="#282BD8" offset="0%"></stop>
            <stop stop-color="#F8125F" offset="100%"></stop>
        </linearGradient>
    </defs>
    <g id="Landing-Page" stroke="none" stroke-width="1" fill="none" fill-rule="evenodd" sketch:type="MSPage">
        <g id="Group" sketch:type="MSLayerGroup" transform="translate(-53.000000, -54.000000)" fill="url(#linearGradient-1)">
            <path d="M133.534033,121.339 C131.780033,119.645 111.452033,113.746 109.493033,112.739 C105.400033,110.693 105.071033,105.468 107.054033,102.088 C107.921033,101.175 110.082033,98.909 112.041033,92.682 C112.775033,92.882 113.441033,92.95 113.873033,92.326 C114.920033,90.814 117.753033,84.064 116.510033,80.309 C115.916033,78.506 114.869033,78.077 114.175033,78.007 C114.896033,72.132 114.855033,71.129 114.046033,67.085 C112.248033,58.094 103.345033,54 95.8360331,54 C88.3270331,54 79.4250331,58.094 77.6270331,67.084 C76.8180331,71.128 76.7780331,72.132 77.4990331,78.006 C76.8040331,78.076 75.7580331,78.505 75.1630331,80.308 C73.9120331,84.099 76.7460331,90.802 77.8010331,92.325 C78.2330331,92.949 78.8980331,92.882 79.6330331,92.681 C81.5600331,98.808 83.6830331,101.1 84.5760331,102.042 C86.4830331,105.719 86.2860331,110.687 82.1800331,112.738 C80.2210331,113.745 59.8930331,119.643 58.1380331,121.338 C53.9520331,125.383 52.9480331,133.691 53.0020331,137.52 C53.0300331,139.443 63.9540331,148.735 95.8360331,148.735 C127.719033,148.735 138.642033,139.443 138.671033,137.52 C138.725033,133.691 137.721033,125.383 133.534033,121.339 L133.534033,121.339 Z M80.3140331,90.423 L79.1690331,90.735 C78.0790331,88.761 76.2130331,83.503 77.0610331,80.935 C77.2430331,80.385 77.4930331,80.017 77.6980331,79.996 L79.0000331,79.866 C79.4070331,79.825 79.6920331,79.458 79.6430331,79.061 C78.8060331,72.222 78.7570331,71.636 79.5880331,67.477 C81.1660331,59.591 89.1170331,56 95.8360331,56 C102.555033,56 110.507033,59.591 112.084033,67.476 C112.914033,71.63 112.868033,72.217 112.029033,79.06 C111.980033,79.463 112.273033,79.825 112.673033,79.865 L113.974033,79.995 C114.179033,80.016 114.429033,80.384 114.610033,80.933 C115.460033,83.501 113.593033,88.76 112.504033,90.734 L111.359033,90.422 C110.998033,90.323 110.623033,90.526 110.505033,90.882 C108.047033,98.363 103.650033,106.106 95.8360331,106.106 C88.0420331,106.106 83.6220331,98.358 81.1680331,90.882 C81.0510331,90.527 80.6760331,90.325 80.3140331,90.423 L80.3140331,90.423 Z M95.8360331,146.734 C66.9280331,146.734 56.2920331,139.056 54.9990331,137.184 C55.0010331,133.037 56.1840331,126.006 59.5280331,122.777 C61.4750331,121.348 81.1060331,115.539 83.0940331,114.518 C86.7120331,112.708 88.1490331,109.012 87.6290331,105.162 C89.5320331,106.775 92.0410331,108.107 95.8360331,108.107 C99.5650331,108.107 102.055033,106.821 103.945033,105.247 C103.512033,108.966 105.020033,112.739 108.597033,114.528 C110.596033,115.555 130.168033,121.321 132.206033,122.833 C135.487033,126.007 136.670033,133.035 136.672033,137.185 C135.379033,139.057 124.743033,146.734 95.8360331,146.734 L95.8360331,146.734 Z M82.8290331,65.381 C84.2130331,62.625 86.6910331,60.466 89.6280331,59.459 C90.2600331,59.247 90.5750331,60.191 89.9520331,60.405 C87.2610331,61.328 84.9910331,63.305 83.7230331,65.83 C83.4260331,66.419 82.5340331,65.968 82.8290331,65.381 L82.8290331,65.381 Z" id="Shape" sketch:type="MSShapeGroup"></path>
        </g>
    </g>
</svg>